<svg version="1.1" viewBox="0.0 0.0 335.501312335958 166.8005249343832" fill="none" stroke="none" stroke-linecap="square" stroke-miterlimit="10" xmlns:xlink="http://www.w3.org/1999/xlink" xmlns="http://www.w3.org/2000/svg"><clipPath id="p.0"><path d="m0 0l335.5013 0l0 166.80052l-335.5013 0l0 -166.80052z" clip-rule="nonzero"/></clipPath><g clip-path="url(#p.0)"><path fill="#000000" fill-opacity="0.0" d="m0 0l335.5013 0l0 166.80052l-335.5013 0z" fill-rule="evenodd"/><path stroke="#000000" stroke-width="0.7270341207349081" stroke-linecap="butt" d="m1.6902887 45.614174l0 119.59055" fill-rule="nonzero"/><path stroke="#000000" stroke-width="0.7270341207349081" stroke-linecap="butt" d="m153.69029 45.614174l0 119.59055" fill-rule="nonzero"/><path stroke="#000000" stroke-width="0.7270341207349081" stroke-linecap="butt" d="m213.69029 45.614174l0 119.59055" fill-rule="nonzero"/><path stroke="#000000" stroke-width="0.7270341207349081" stroke-linecap="butt" d="m273.69028 45.614174l0 119.59055" fill-rule="nonzero"/><path stroke="#000000" stroke-width="0.7270341207349081" stroke-linecap="butt" d="m333.69028 45.614174l0 119.59055" fill-rule="nonzero"/><path stroke="#000000" stroke-width="0.7270341207349081" stroke-linecap="butt" d="m1.191601 45.25197l332.99738 0" fill-rule="nonzero"/><path stroke="#000000" stroke-width="0.7270341207349081" stroke-linecap="butt" d="m1.328084 86.44882l332.7244 0" fill-rule="nonzero"/><path stroke="#000000" stroke-width="0.7270341207349081" stroke-linecap="butt" d="m1.328084 125.64567l332.7244 0" fill-rule="nonzero"/><path stroke="#000000" stroke-width="0.7270341207349081" stroke-linecap="butt" d="m1.328084 164.84251l332.7244 0" fill-rule="nonzero"/><path fill="#000000" d="m99.67792 23.704468l0 3.171875q0 0.9375 0.109375 1.1875q0.125 0.234375 0.40625 0.375q0.296875 0.140625 1.078125 0.140625l0 0.3125l-5.828125 0l0 -0.3125q0.796875 0 1.078125 -0.140625q0.28125 -0.15625 0.390625 -0.390625q0.125 -0.234375 0.125 -1.171875l0 -7.4375q0 -0.9375 -0.125 -1.171875q-0.109375 -0.25 -0.390625 -0.390625q-0.28125 -0.140625 -1.078125 -0.140625l0 -0.3125l5.0 0q2.46875 0 3.546875 0.875q1.078125 0.875 1.078125 2.203125q0 1.109375 -0.703125 1.90625q-0.6875 0.796875 -1.90625 1.09375q-0.8125 0.203125 -2.78125 0.203125zm0 -5.625l0 4.953125q0.28125 0.015625 0.4375 0.015625q1.03125 0 1.578125 -0.609375q0.5625 -0.609375 0.5625 -1.890625q0 -1.28125 -0.5625 -1.875q-0.546875 -0.59375 -1.65625 -0.59375l-0.359375 0zm10.865967 9.640625q-1.453125 1.28125 -2.59375 1.28125q-0.6875 0 -1.140625 -0.4375q-0.4375 -0.453125 -0.4375 -1.125q0 -0.90625 0.765625 -1.625q0.78125 -0.71875 3.40625 -1.921875l0 -0.796875q0 -0.890625 -0.109375 -1.125q-0.09375 -0.234375 -0.359375 -0.40625q-0.265625 -0.171875 -0.609375 -0.171875q-0.546875 0 -0.90625 0.234375q-0.21875 0.15625 -0.21875 0.359375q0 0.1875 0.234375 0.4375q0.328125 0.375 0.328125 0.703125q0 0.421875 -0.3125 0.71875q-0.3125 0.28125 -0.8125 0.28125q-0.53125 0 -0.890625 -0.3125q-0.359375 -0.328125 -0.359375 -0.765625q0 -0.609375 0.484375 -1.15625q0.484375 -0.5625 1.34375 -0.84375q0.859375 -0.296875 1.796875 -0.296875q1.125 0 1.78125 0.484375q0.65625 0.46875 0.84375 1.015625q0.125 0.359375 0.125 1.640625l0 3.078125q0 0.53125 0.03125 0.671875q0.046875 0.140625 0.125 0.21875q0.09375 0.0625 0.203125 0.0625q0.21875 0 0.453125 -0.3125l0.25 0.203125q-0.421875 0.625 -0.875 0.90625q-0.453125 0.28125 -1.03125 0.28125q-0.671875 0 -1.0625 -0.3125q-0.375 -0.328125 -0.453125 -0.96875zm0 -0.609375l0 -2.65625q-1.03125 0.609375 -1.53125 1.296875q-0.328125 0.453125 -0.328125 0.921875q0 0.375 0.28125 0.671875q0.21875 0.234375 0.59375 0.234375q0.421875 0 0.984375 -0.46875zm7.9296875 2.109375l-2.5625 -5.875q-0.578125 -1.328125 -0.859375 -1.625q-0.265625 -0.3125 -0.65625 -0.421875l0 -0.3125l4.203125 0l0 0.3125q-0.40625 0.015625 -0.578125 0.15625q-0.171875 0.140625 -0.171875 0.34375q0 0.328125 0.421875 1.265625l1.359375 3.109375l0.921875 -2.40625q0.5 -1.265625 0.5 -1.765625q0 -0.3125 -0.21875 -0.5q-0.203125 -0.1875 -0.71875 -0.203125l0 -0.3125l2.640625 0l0 0.3125q-0.390625 0.03125 -0.640625 0.296875q-0.234375 0.25 -0.8125 1.75l-2.265625 5.875q-0.84375 2.1875 -1.265625 2.703125q-0.578125 0.703125 -1.453125 0.703125q-0.703125 0 -1.140625 -0.40625q-0.4375 -0.390625 -0.4375 -0.953125q0 -0.5 0.296875 -0.828125q0.296875 -0.3125 0.734375 -0.3125q0.4375 0 0.6875 0.265625q0.265625 0.28125 0.265625 0.84375q0.015625 0.328125 0.078125 0.421875q0.0625 0.078125 0.1875 0.078125q0.203125 0 0.4375 -0.234375q0.34375 -0.359375 0.796875 -1.625l0.25 -0.65625zm8.1328125 -11.796875l0 9.828125q0 0.84375 0.1875 1.078125q0.1875 0.21875 0.765625 0.265625l0 0.296875l-4.28125 0l0 -0.296875q0.53125 -0.03125 0.78125 -0.3125q0.171875 -0.1875 0.171875 -1.03125l0 -8.1875q0 -0.828125 -0.203125 -1.0625q-0.1875 -0.234375 -0.75 -0.265625l0 -0.3125l3.328125 0zm5.439316 3.328125q1.03125 0 1.921875 0.53125q0.890625 0.53125 1.34375 1.515625q0.46875 0.96875 0.46875 2.140625q0 1.6875 -0.859375 2.8125q-1.03125 1.375 -2.84375 1.375q-1.78125 0 -2.75 -1.25q-0.96875 -1.25 -0.96875 -2.90625q0 -1.703125 0.984375 -2.953125q0.984375 -1.265625 2.703125 -1.265625zm0.03125 0.59375q-0.421875 0 -0.734375 0.328125q-0.3125 0.328125 -0.40625 1.296875q-0.09375 0.953125 -0.09375 2.65625q0 0.90625 0.109375 1.6875q0.09375 0.609375 0.390625 0.921875q0.3125 0.3125 0.703125 0.3125q0.390625 0 0.640625 -0.21875q0.328125 -0.28125 0.4375 -0.796875q0.171875 -0.8125 0.171875 -3.25q0 -1.4375 -0.171875 -1.96875q-0.15625 -0.546875 -0.46875 -0.796875q-0.21875 -0.171875 -0.578125 -0.171875zm9.2734375 6.375q-1.453125 1.28125 -2.59375 1.28125q-0.6875 0 -1.140625 -0.4375q-0.4375 -0.453125 -0.4375 -1.125q0 -0.90625 0.765625 -1.625q0.78125 -0.71875 3.40625 -1.921875l0 -0.796875q0 -0.890625 -0.109375 -1.125q-0.09375 -0.234375 -0.359375 -0.40625q-0.265625 -0.171875 -0.609375 -0.171875q-0.546875 0 -0.90625 0.234375q-0.21875 0.15625 -0.21875 0.359375q0 0.1875 0.234375 0.4375q0.328125 0.375 0.328125 0.703125q0 0.421875 -0.3125 0.71875q-0.3125 0.28125 -0.8125 0.28125q-0.53125 0 -0.890625 -0.3125q-0.359375 -0.328125 -0.359375 -0.765625q0 -0.609375 0.484375 -1.15625q0.484375 -0.5625 1.34375 -0.84375q0.859375 -0.296875 1.796875 -0.296875q1.125 0 1.78125 0.484375q0.65625 0.46875 0.84375 1.015625q0.125 0.359375 0.125 1.640625l0 3.078125q0 0.53125 0.03125 0.671875q0.046875 0.140625 0.125 0.21875q0.09375 0.0625 0.203125 0.0625q0.21875 0 0.453125 -0.3125l0.25 0.203125q-0.421875 0.625 -0.875 0.90625q-0.453125 0.28125 -1.03125 0.28125q-0.671875 0 -1.0625 -0.3125q-0.375 -0.328125 -0.453125 -0.96875zm0 -0.609375l0 -2.65625q-1.03125 0.609375 -1.53125 1.296875q-0.328125 0.453125 -0.328125 0.921875q0 0.375 0.28125 0.671875q0.21875 0.234375 0.59375 0.234375q0.421875 0 0.984375 -0.46875zm11.9921875 -9.6875l0 9.09375q0 0.921875 0.046875 1.09375q0.0625 0.28125 0.25 0.421875q0.203125 0.125 0.671875 0.171875l0 0.265625l-3.34375 0.65625l0 -1.25q-0.59375 0.734375 -1.078125 1.0q-0.46875 0.25 -1.046875 0.25q-1.515625 0 -2.40625 -1.34375q-0.703125 -1.109375 -0.703125 -2.703125q0 -1.28125 0.4375 -2.28125q0.4375 -1.015625 1.203125 -1.53125q0.765625 -0.515625 1.640625 -0.515625q0.578125 0 1.015625 0.21875q0.4375 0.21875 0.9375 0.765625l0 -2.390625q0 -0.90625 -0.078125 -1.09375q-0.09375 -0.234375 -0.296875 -0.359375q-0.203125 -0.125 -0.765625 -0.125l0 -0.34375l3.515625 0zm-2.375 5.359375q-0.625 -1.203125 -1.53125 -1.203125q-0.3125 0 -0.515625 0.171875q-0.3125 0.265625 -0.515625 0.921875q-0.203125 0.65625 -0.203125 2.015625q0 1.5 0.21875 2.21875q0.234375 0.71875 0.609375 1.046875q0.1875 0.15625 0.53125 0.15625q0.75 0 1.40625 -1.171875l0 -4.15625zm16.344116 -5.359375l0 9.09375q0 0.921875 0.046875 1.09375q0.0625 0.28125 0.25 0.421875q0.203125 0.125 0.671875 0.171875l0 0.265625l-3.34375 0.65625l0 -1.25q-0.59375 0.734375 -1.078125 1.0q-0.46875 0.25 -1.046875 0.25q-1.515625 0 -2.40625 -1.34375q-0.703125 -1.109375 -0.703125 -2.703125q0 -1.28125 0.4375 -2.28125q0.4375 -1.015625 1.203125 -1.53125q0.765625 -0.515625 1.640625 -0.515625q0.578125 0 1.015625 0.21875q0.4375 0.21875 0.9375 0.765625l0 -2.390625q0 -0.90625 -0.078125 -1.09375q-0.09375 -0.234375 -0.296875 -0.359375q-0.203125 -0.125 -0.765625 -0.125l0 -0.34375l3.515625 0zm-2.375 5.359375q-0.625 -1.203125 -1.53125 -1.203125q-0.3125 0 -0.515625 0.171875q-0.3125 0.265625 -0.515625 0.921875q-0.203125 0.65625 -0.203125 2.015625q0 1.5 0.21875 2.21875q0.234375 0.71875 0.609375 1.046875q0.1875 0.15625 0.53125 0.15625q0.75 0 1.40625 -1.171875l0 -4.15625zm11.012085 1.875l-4.34375 0q0.078125 1.5625 0.84375 2.484375q0.578125 0.703125 1.40625 0.703125q0.5 0 0.90625 -0.28125q0.421875 -0.28125 0.90625 -1.03125l0.28125 0.1875q-0.640625 1.3125 -1.421875 1.859375q-0.78125 0.546875 -1.796875 0.546875q-1.765625 0 -2.671875 -1.34375q-0.71875 -1.09375 -0.71875 -2.71875q0 -1.96875 1.0625 -3.140625q1.078125 -1.171875 2.515625 -1.171875q1.203125 0 2.078125 0.984375q0.890625 0.984375 0.953125 2.921875zm-2.078125 -0.578125q0 -1.359375 -0.15625 -1.859375q-0.140625 -0.515625 -0.453125 -0.78125q-0.171875 -0.140625 -0.46875 -0.140625q-0.4375 0 -0.71875 0.421875q-0.5 0.765625 -0.5 2.0625l0 0.296875l2.296875 0zm11.429337 -0.421875l0 3.21875q0 0.9375 0.109375 1.1875q0.109375 0.234375 0.390625 0.375q0.296875 0.140625 1.078125 0.140625l0 0.3125l-5.859375 0l0 -0.3125q0.78125 0 1.0625 -0.140625q0.296875 -0.15625 0.40625 -0.390625q0.109375 -0.234375 0.109375 -1.171875l0 -7.4375q0 -0.9375 -0.109375 -1.171875q-0.109375 -0.25 -0.40625 -0.390625q-0.28125 -0.140625 -1.0625 -0.140625l0 -0.3125l5.328125 0q2.078125 0 3.03125 0.296875q0.96875 0.28125 1.578125 1.0625q0.609375 0.765625 0.609375 1.796875q0 1.265625 -0.90625 2.109375q-0.578125 0.515625 -1.640625 0.78125l2.765625 3.875q0.546875 0.765625 0.765625 0.953125q0.34375 0.25 0.8125 0.28125l0 0.3125l-3.625 0l-3.6875 -5.234375l-0.75 0zm0 -5.625l0 5.03125l0.46875 0q1.1875 0 1.765625 -0.21875q0.578125 -0.21875 0.90625 -0.78125q0.34375 -0.5625 0.34375 -1.46875q0 -1.3125 -0.609375 -1.9375q-0.609375 -0.625 -1.96875 -0.625l-0.90625 0zm15.185699 6.625l-4.34375 0q0.078125 1.5625 0.84375 2.484375q0.578125 0.703125 1.40625 0.703125q0.5 0 0.90625 -0.28125q0.421875 -0.28125 0.90625 -1.03125l0.28125 0.1875q-0.640625 1.3125 -1.421875 1.859375q-0.78125 0.546875 -1.796875 0.546875q-1.765625 0 -2.671875 -1.34375q-0.71875 -1.09375 -0.71875 -2.71875q0 -1.96875 1.0625 -3.140625q1.078125 -1.171875 2.515625 -1.171875q1.203125 0 2.078125 0.984375q0.890625 0.984375 0.953125 2.921875zm-2.078125 -0.578125q0 -1.359375 -0.15625 -1.859375q-0.140625 -0.515625 -0.453125 -0.78125q-0.171875 -0.140625 -0.46875 -0.140625q-0.4375 0 -0.71875 0.421875q-0.5 0.765625 -0.5 2.0625l0 0.296875l2.296875 0zm8.378555 3.984375q-0.515625 0.546875 -0.953125 0.765625q-0.59375 0.296875 -1.234375 0.296875q-1.5 0 -2.359375 -1.328125q-0.6875 -1.0625 -0.6875 -2.53125q0 -1.21875 0.515625 -2.296875q0.53125 -1.078125 1.4375 -1.640625q0.90625 -0.578125 1.921875 -0.578125q0.6875 0 1.203125 0.234375q0.53125 0.21875 0.921875 0.6875l1.328125 -0.921875l0.28125 0l0 10.234375q0 0.78125 0.140625 0.984375q0.21875 0.3125 0.890625 0.3125l0 0.3125l-4.578125 0l0 -0.3125q0.53125 0 0.765625 -0.125q0.234375 -0.109375 0.3125 -0.3125q0.09375 -0.1875 0.09375 -0.78125l0 -3.0zm0 -0.765625l0 -3.265625q0 -1.359375 -0.15625 -1.796875q-0.140625 -0.4375 -0.53125 -0.765625q-0.203125 -0.15625 -0.515625 -0.15625q-0.640625 0 -1.0 0.5625q-0.5625 0.875 -0.5625 3.234375q0 1.828125 0.484375 2.5625q0.328125 0.5 0.859375 0.5q0.296875 0 0.6875 -0.203125q0.390625 -0.21875 0.734375 -0.671875zm11.96521 -6.3125l0 6.1875q0 0.90625 0.171875 1.140625q0.171875 0.21875 0.6875 0.28125l0 0.296875l-3.21875 0l0 -1.0625q-0.578125 0.6875 -1.140625 1.0q-0.5625 0.296875 -1.265625 0.296875q-0.671875 0 -1.1875 -0.40625q-0.515625 -0.40625 -0.703125 -0.953125q-0.171875 -0.5625 -0.171875 -1.921875l0 -3.140625q0 -0.90625 -0.171875 -1.125q-0.15625 -0.21875 -0.6875 -0.28125l0 -0.3125l3.21875 0l0 5.40625q0 0.84375 0.078125 1.09375q0.09375 0.234375 0.265625 0.375q0.171875 0.125 0.40625 0.125q0.296875 0 0.546875 -0.171875q0.328125 -0.21875 0.8125 -0.890625l0 -4.21875q0 -0.90625 -0.171875 -1.125q-0.15625 -0.21875 -0.6875 -0.28125l0 -0.3125l3.21875 0zm8.699585 3.671875l-4.34375 0q0.078125 1.5625 0.84375 2.484375q0.578125 0.703125 1.40625 0.703125q0.5 0 0.90625 -0.28125q0.421875 -0.28125 0.90625 -1.03125l0.28125 0.1875q-0.640625 1.3125 -1.421875 1.859375q-0.78125 0.546875 -1.796875 0.546875q-1.765625 0 -2.671875 -1.34375q-0.71875 -1.09375 -0.71875 -2.71875q0 -1.96875 1.0625 -3.140625q1.078125 -1.171875 2.515625 -1.171875q1.203125 0 2.078125 0.984375q0.890625 0.984375 0.953125 2.921875zm-2.078125 -0.578125q0 -1.359375 -0.15625 -1.859375q-0.140625 -0.515625 -0.453125 -0.78125q-0.171875 -0.140625 -0.46875 -0.140625q-0.4375 0 -0.71875 0.421875q-0.5 0.765625 -0.5 2.0625l0 0.296875l2.296875 0zm8.066055 -3.3125l0.140625 2.6875l-0.296875 0q-0.515625 -1.203125 -1.078125 -1.640625q-0.546875 -0.4375 -1.09375 -0.4375q-0.34375 0 -0.59375 0.234375q-0.25 0.234375 -0.25 0.53125q0 0.234375 0.171875 0.453125q0.265625 0.34375 1.515625 1.1875q1.25 0.84375 1.640625 1.4375q0.390625 0.578125 0.390625 1.296875q0 0.671875 -0.328125 1.3125q-0.328125 0.625 -0.9375 0.96875q-0.59375 0.328125 -1.328125 0.328125q-0.5625 0 -1.515625 -0.359375q-0.25 -0.09375 -0.34375 -0.09375q-0.28125 0 -0.46875 0.4375l-0.265625 0l-0.140625 -2.84375l0.28125 0q0.390625 1.109375 1.046875 1.671875q0.671875 0.5625 1.265625 0.5625q0.40625 0 0.65625 -0.25q0.265625 -0.25 0.265625 -0.609375q0 -0.40625 -0.265625 -0.703125q-0.25 -0.296875 -1.125 -0.890625q-1.296875 -0.90625 -1.671875 -1.375q-0.5625 -0.703125 -0.5625 -1.53125q0 -0.921875 0.625 -1.65625q0.640625 -0.734375 1.828125 -0.734375q0.640625 0 1.234375 0.3125q0.234375 0.125 0.375 0.125q0.15625 0 0.25 -0.0625q0.09375 -0.0625 0.296875 -0.359375l0.28125 0zm4.8840485 -2.6875l0 2.90625l1.875 0l0 0.828125l-1.875 0l0 4.890625q0 0.6875 0.0625 0.890625q0.0625 0.1875 0.21875 0.3125q0.171875 0.125 0.3125 0.125q0.546875 0 1.03125 -0.84375l0.25 0.1875q-0.671875 1.625 -2.21875 1.625q-0.75 0 -1.28125 -0.421875q-0.515625 -0.421875 -0.65625 -0.9375q-0.078125 -0.28125 -0.078125 -1.546875l0 -4.28125l-1.03125 0l0 -0.296875q1.0625 -0.75 1.8125 -1.578125q0.75 -0.828125 1.296875 -1.859375l0.28125 0z" fill-rule="nonzero"/><path fill="#000000" d="m165.24939 68.410095q0.328125 0.953125 1.015625 1.4375q0.703125 0.484375 1.75 0.484375q0.296875 0 0.609375 -0.0625l0 0.4375q-1.078125 0.265625 -1.9375 0.265625q-1.328125 0 -2.375 -0.65625q-1.046875 -0.640625 -1.578125 -1.90625q-1.75 -0.359375 -2.828125 -1.703125q-1.078125 -1.359375 -1.078125 -3.234375q0 -2.1875 1.453125 -3.625q1.46875 -1.4375 3.703125 -1.4375q2.25 0 3.703125 1.453125q1.453125 1.4375 1.453125 3.609375q0 1.875 -1.140625 3.28125q-1.140625 1.390625 -2.75 1.65625zm-1.265625 -9.453125q-1.296875 0 -1.984375 1.328125q-0.59375 1.125 -0.59375 3.203125q0 2.484375 0.875 3.6875q0.625 0.84375 1.703125 0.84375q1.078125 0 1.6875 -0.828125q0.890625 -1.171875 0.890625 -3.546875q0 -2.328125 -0.5625 -3.375q-0.671875 -1.3125 -2.015625 -1.3125zm12.618851 2.6875l0 5.234375q0 0.765625 0.140625 0.953125q0.15625 0.1875 0.578125 0.25l0 0.25l-2.71875 0l0 -0.890625q-0.484375 0.5625 -0.96875 0.828125q-0.46875 0.265625 -1.0625 0.265625q-0.5625 0 -1.015625 -0.34375q-0.4375 -0.359375 -0.59375 -0.8125q-0.140625 -0.46875 -0.140625 -1.625l0 -2.65625q0 -0.765625 -0.140625 -0.953125q-0.140625 -0.1875 -0.578125 -0.234375l0 -0.265625l2.71875 0l0 4.5625q0 0.71875 0.0625 0.9375q0.078125 0.203125 0.21875 0.3125q0.15625 0.109375 0.34375 0.109375q0.265625 0 0.46875 -0.140625q0.28125 -0.1875 0.6875 -0.75l0 -3.578125q0 -0.765625 -0.140625 -0.953125q-0.140625 -0.1875 -0.578125 -0.234375l0 -0.265625l2.71875 0zm7.354233 3.109375l-3.671875 0q0.078125 1.328125 0.71875 2.09375q0.484375 0.59375 1.1875 0.59375q0.421875 0 0.765625 -0.234375q0.359375 -0.234375 0.765625 -0.859375l0.234375 0.15625q-0.53125 1.109375 -1.203125 1.578125q-0.65625 0.453125 -1.515625 0.453125q-1.484375 0 -2.25 -1.140625q-0.625 -0.9375 -0.625 -2.296875q0 -1.671875 0.90625 -2.65625q0.90625 -1.0 2.125 -1.0q1.015625 0 1.765625 0.84375q0.75 0.828125 0.796875 2.46875zm-1.75 -0.484375q0 -1.15625 -0.125 -1.578125q-0.125 -0.4375 -0.390625 -0.65625q-0.15625 -0.125 -0.40625 -0.125q-0.375 0 -0.609375 0.359375q-0.421875 0.640625 -0.421875 1.75l0 0.25l1.953125 0zm5.364517 -2.625l0 1.515625q0.671875 -1.046875 1.171875 -1.375q0.5 -0.34375 0.96875 -0.34375q0.390625 0 0.625 0.25q0.25 0.25 0.25 0.6875q0 0.484375 -0.234375 0.75q-0.234375 0.265625 -0.5625 0.265625q-0.375 0 -0.65625 -0.234375q-0.28125 -0.25 -0.328125 -0.28125q-0.0625 -0.046875 -0.15625 -0.046875q-0.21875 0 -0.40625 0.15625q-0.28125 0.25 -0.4375 0.703125q-0.234375 0.6875 -0.234375 1.53125l0 1.53125l0.015625 0.40625q0 0.40625 0.046875 0.515625q0.078125 0.203125 0.25 0.296875q0.171875 0.078125 0.578125 0.109375l0 0.25l-3.625 0l0 -0.25q0.4375 -0.046875 0.59375 -0.25q0.15625 -0.203125 0.15625 -1.078125l0 -3.703125q0 -0.5625 -0.0625 -0.71875q-0.0625 -0.203125 -0.203125 -0.296875q-0.140625 -0.09375 -0.484375 -0.125l0 -0.265625l2.734375 0zm6.802017 6.953125l-2.15625 -4.953125q-0.484375 -1.125 -0.71875 -1.375q-0.234375 -0.265625 -0.5625 -0.359375l0 -0.265625l3.546875 0l0 0.265625q-0.34375 0.015625 -0.484375 0.140625q-0.140625 0.109375 -0.140625 0.28125q0 0.28125 0.359375 1.078125l1.140625 2.625l0.78125 -2.03125q0.421875 -1.078125 0.421875 -1.5q0 -0.265625 -0.1875 -0.421875q-0.171875 -0.15625 -0.609375 -0.171875l0 -0.265625l2.234375 0l0 0.265625q-0.328125 0.03125 -0.53125 0.25q-0.203125 0.21875 -0.6875 1.484375l-1.921875 4.953125q-0.71875 1.859375 -1.0625 2.296875q-0.5 0.59375 -1.25 0.59375q-0.59375 0 -0.96875 -0.34375q-0.359375 -0.328125 -0.359375 -0.8125q0 -0.40625 0.25 -0.6875q0.265625 -0.265625 0.625 -0.265625q0.359375 0 0.578125 0.21875q0.21875 0.234375 0.234375 0.71875q0 0.265625 0.0625 0.34375q0.0625 0.078125 0.15625 0.078125q0.171875 0 0.375 -0.203125q0.28125 -0.296875 0.671875 -1.375l0.203125 -0.5625zm12.1953125 -10.171875l0 7.9375q0 0.890625 0.078125 1.140625q0.09375 0.25 0.34375 0.40625q0.25 0.15625 0.796875 0.15625l0.21875 0l0 0.265625l-5.109375 0l0 -0.265625l0.265625 0q0.609375 0 0.875 -0.140625q0.265625 -0.140625 0.359375 -0.390625q0.09375 -0.25 0.09375 -1.171875l0 -5.03125q0 -0.671875 -0.0625 -0.84375q-0.0625 -0.171875 -0.234375 -0.28125q-0.171875 -0.125 -0.40625 -0.125q-0.359375 0 -0.890625 0.234375l-0.125 -0.25l3.5625 -1.640625l0.234375 0z" fill-rule="nonzero"/><path fill="#000000" d="m225.24939 68.410095q0.328125 0.953125 1.015625 1.4375q0.703125 0.484375 1.75 0.484375q0.296875 0 0.609375 -0.0625l0 0.4375q-1.078125 0.265625 -1.9375 0.265625q-1.328125 0 -2.375 -0.65625q-1.046875 -0.640625 -1.578125 -1.90625q-1.75 -0.359375 -2.828125 -1.703125q-1.078125 -1.359375 -1.078125 -3.234375q0 -2.1875 1.453125 -3.625q1.46875 -1.4375 3.703125 -1.4375q2.25 0 3.703125 1.453125q1.453125 1.4375 1.453125 3.609375q0 1.875 -1.140625 3.28125q-1.140625 1.390625 -2.75 1.65625zm-1.265625 -9.453125q-1.296875 0 -1.984375 1.328125q-0.59375 1.125 -0.59375 3.203125q0 2.484375 0.875 3.6875q0.625 0.84375 1.703125 0.84375q1.078125 0 1.6875 -0.828125q0.890625 -1.171875 0.890625 -3.546875q0 -2.328125 -0.5625 -3.375q-0.671875 -1.3125 -2.015625 -1.3125zm12.618851 2.6875l0 5.234375q0 0.765625 0.140625 0.953125q0.15625 0.1875 0.578125 0.25l0 0.25l-2.71875 0l0 -0.890625q-0.484375 0.5625 -0.96875 0.828125q-0.46875 0.265625 -1.0625 0.265625q-0.5625 0 -1.015625 -0.34375q-0.4375 -0.359375 -0.59375 -0.8125q-0.140625 -0.46875 -0.140625 -1.625l0 -2.65625q0 -0.765625 -0.140625 -0.953125q-0.140625 -0.1875 -0.578125 -0.234375l0 -0.265625l2.71875 0l0 4.5625q0 0.71875 0.0625 0.9375q0.078125 0.203125 0.21875 0.3125q0.15625 0.109375 0.34375 0.109375q0.265625 0 0.46875 -0.140625q0.28125 -0.1875 0.6875 -0.75l0 -3.578125q0 -0.765625 -0.140625 -0.953125q-0.140625 -0.1875 -0.578125 -0.234375l0 -0.265625l2.71875 0zm7.354233 3.109375l-3.671875 0q0.078125 1.328125 0.71875 2.09375q0.484375 0.59375 1.1875 0.59375q0.421875 0 0.765625 -0.234375q0.359375 -0.234375 0.765625 -0.859375l0.234375 0.15625q-0.53125 1.109375 -1.203125 1.578125q-0.65625 0.453125 -1.515625 0.453125q-1.484375 0 -2.25 -1.140625q-0.625 -0.9375 -0.625 -2.296875q0 -1.671875 0.90625 -2.65625q0.90625 -1.0 2.125 -1.0q1.015625 0 1.765625 0.84375q0.75 0.828125 0.796875 2.46875zm-1.75 -0.484375q0 -1.15625 -0.125 -1.578125q-0.125 -0.4375 -0.390625 -0.65625q-0.15625 -0.125 -0.40625 -0.125q-0.375 0 -0.609375 0.359375q-0.421875 0.640625 -0.421875 1.75l0 0.25l1.953125 0zm5.364517 -2.625l0 1.515625q0.671875 -1.046875 1.171875 -1.375q0.5 -0.34375 0.96875 -0.34375q0.390625 0 0.625 0.25q0.25 0.25 0.25 0.6875q0 0.484375 -0.234375 0.75q-0.234375 0.265625 -0.5625 0.265625q-0.375 0 -0.65625 -0.234375q-0.28125 -0.25 -0.328125 -0.28125q-0.0625 -0.046875 -0.15625 -0.046875q-0.21875 0 -0.40625 0.15625q-0.28125 0.25 -0.4375 0.703125q-0.234375 0.6875 -0.234375 1.53125l0 1.53125l0.015625 0.40625q0 0.40625 0.046875 0.515625q0.078125 0.203125 0.25 0.296875q0.171875 0.078125 0.578125 0.109375l0 0.25l-3.625 0l0 -0.25q0.4375 -0.046875 0.59375 -0.25q0.15625 -0.203125 0.15625 -1.078125l0 -3.703125q0 -0.5625 -0.0625 -0.71875q-0.0625 -0.203125 -0.203125 -0.296875q-0.140625 -0.09375 -0.484375 -0.125l0 -0.265625l2.734375 0zm6.802017 6.953125l-2.15625 -4.953125q-0.484375 -1.125 -0.71875 -1.375q-0.234375 -0.265625 -0.5625 -0.359375l0 -0.265625l3.546875 0l0 0.265625q-0.34375 0.015625 -0.484375 0.140625q-0.140625 0.109375 -0.140625 0.28125q0 0.28125 0.359375 1.078125l1.140625 2.625l0.78125 -2.03125q0.421875 -1.078125 0.421875 -1.5q0 -0.265625 -0.1875 -0.421875q-0.171875 -0.15625 -0.609375 -0.171875l0 -0.265625l2.234375 0l0 0.265625q-0.328125 0.03125 -0.53125 0.25q-0.203125 0.21875 -0.6875 1.484375l-1.921875 4.953125q-0.71875 1.859375 -1.0625 2.296875q-0.5 0.59375 -1.25 0.59375q-0.59375 0 -0.96875 -0.34375q-0.359375 -0.328125 -0.359375 -0.8125q0 -0.40625 0.25 -0.6875q0.265625 -0.265625 0.625 -0.265625q0.359375 0 0.578125 0.21875q0.21875 0.234375 0.234375 0.71875q0 0.265625 0.0625 0.34375q0.0625 0.078125 0.15625 0.078125q0.171875 0 0.375 -0.203125q0.28125 -0.296875 0.671875 -1.375l0.203125 -0.5625zm13.4921875 -0.265625l-5.703125 0l0 -0.15625q2.625 -3.125 3.1875 -4.203125q0.5625 -1.09375 0.5625 -2.109375q0 -0.765625 -0.46875 -1.25q-0.46875 -0.5 -1.140625 -0.5q-1.09375 0 -1.703125 1.09375l-0.265625 -0.09375q0.390625 -1.375 1.171875 -2.03125q0.78125 -0.65625 1.8125 -0.65625q0.75 0 1.34375 0.34375q0.609375 0.34375 0.953125 0.953125q0.34375 0.59375 0.34375 1.109375q0 0.953125 -0.53125 1.9375q-0.71875 1.3125 -3.15625 3.6875l2.109375 0q0.765625 0 1.0 -0.0625q0.234375 -0.0625 0.375 -0.21875q0.15625 -0.15625 0.40625 -0.65625l0.25 0l-0.546875 2.8125z" fill-rule="nonzero"/><path fill="#000000" d="m285.2494 68.410095q0.328125 0.953125 1.015625 1.4375q0.703125 0.484375 1.75 0.484375q0.296875 0 0.609375 -0.0625l0 0.4375q-1.078125 0.265625 -1.9375 0.265625q-1.328125 0 -2.375 -0.65625q-1.046875 -0.640625 -1.578125 -1.90625q-1.75 -0.359375 -2.828125 -1.703125q-1.078125 -1.359375 -1.078125 -3.234375q0 -2.1875 1.453125 -3.625q1.46875 -1.4375 3.703125 -1.4375q2.25 0 3.703125 1.453125q1.453125 1.4375 1.453125 3.609375q0 1.875 -1.140625 3.28125q-1.140625 1.390625 -2.75 1.65625zm-1.265625 -9.453125q-1.296875 0 -1.984375 1.328125q-0.59375 1.125 -0.59375 3.203125q0 2.484375 0.875 3.6875q0.625 0.84375 1.703125 0.84375q1.078125 0 1.6875 -0.828125q0.890625 -1.171875 0.890625 -3.546875q0 -2.328125 -0.5625 -3.375q-0.671875 -1.3125 -2.015625 -1.3125zm12.618835 2.6875l0 5.234375q0 0.765625 0.140625 0.953125q0.15625 0.1875 0.578125 0.25l0 0.25l-2.71875 0l0 -0.890625q-0.484375 0.5625 -0.96875 0.828125q-0.46875 0.265625 -1.0625 0.265625q-0.5625 0 -1.015625 -0.34375q-0.4375 -0.359375 -0.59375 -0.8125q-0.140625 -0.46875 -0.140625 -1.625l0 -2.65625q0 -0.765625 -0.140625 -0.953125q-0.140625 -0.1875 -0.578125 -0.234375l0 -0.265625l2.71875 0l0 4.5625q0 0.71875 0.0625 0.9375q0.078125 0.203125 0.21875 0.3125q0.15625 0.109375 0.34375 0.109375q0.265625 0 0.46875 -0.140625q0.28125 -0.1875 0.6875 -0.75l0 -3.578125q0 -0.765625 -0.140625 -0.953125q-0.140625 -0.1875 -0.578125 -0.234375l0 -0.265625l2.71875 0zm7.354248 3.109375l-3.671875 0q0.078125 1.328125 0.71875 2.09375q0.484375 0.59375 1.1875 0.59375q0.421875 0 0.765625 -0.234375q0.359375 -0.234375 0.765625 -0.859375l0.234375 0.15625q-0.53125 1.109375 -1.203125 1.578125q-0.65625 0.453125 -1.515625 0.453125q-1.484375 0 -2.25 -1.140625q-0.625 -0.9375 -0.625 -2.296875q0 -1.671875 0.90625 -2.65625q0.90625 -1.0 2.125 -1.0q1.015625 0 1.765625 0.84375q0.75 0.828125 0.796875 2.46875zm-1.75 -0.484375q0 -1.15625 -0.125 -1.578125q-0.125 -0.4375 -0.390625 -0.65625q-0.15625 -0.125 -0.40625 -0.125q-0.375 0 -0.609375 0.359375q-0.421875 0.640625 -0.421875 1.75l0 0.25l1.953125 0zm5.364502 -2.625l0 1.515625q0.671875 -1.046875 1.171875 -1.375q0.5 -0.34375 0.96875 -0.34375q0.390625 0 0.625 0.25q0.25 0.25 0.25 0.6875q0 0.484375 -0.234375 0.75q-0.234375 0.265625 -0.5625 0.265625q-0.375 0 -0.65625 -0.234375q-0.28125 -0.25 -0.328125 -0.28125q-0.0625 -0.046875 -0.15625 -0.046875q-0.21875 0 -0.40625 0.15625q-0.28125 0.25 -0.4375 0.703125q-0.234375 0.6875 -0.234375 1.53125l0 1.53125l0.015625 0.40625q0 0.40625 0.046875 0.515625q0.078125 0.203125 0.25 0.296875q0.171875 0.078125 0.578125 0.109375l0 0.25l-3.625 0l0 -0.25q0.4375 -0.046875 0.59375 -0.25q0.15625 -0.203125 0.15625 -1.078125l0 -3.703125q0 -0.5625 -0.0625 -0.71875q-0.0625 -0.203125 -0.203125 -0.296875q-0.140625 -0.09375 -0.484375 -0.125l0 -0.265625l2.734375 0zm6.8020325 6.953125l-2.15625 -4.953125q-0.484375 -1.125 -0.71875 -1.375q-0.234375 -0.265625 -0.5625 -0.359375l0 -0.265625l3.546875 0l0 0.265625q-0.34375 0.015625 -0.484375 0.140625q-0.140625 0.109375 -0.140625 0.28125q0 0.28125 0.359375 1.078125l1.140625 2.625l0.78125 -2.03125q0.421875 -1.078125 0.421875 -1.5q0 -0.265625 -0.1875 -0.421875q-0.171875 -0.15625 -0.609375 -0.171875l0 -0.265625l2.234375 0l0 0.265625q-0.328125 0.03125 -0.53125 0.25q-0.203125 0.21875 -0.6875 1.484375l-1.921875 4.953125q-0.71875 1.859375 -1.0625 2.296875q-0.5 0.59375 -1.25 0.59375q-0.59375 0 -0.96875 -0.34375q-0.359375 -0.328125 -0.359375 -0.8125q0 -0.40625 0.25 -0.6875q0.265625 -0.265625 0.625 -0.265625q0.359375 0 0.578125 0.21875q0.21875 0.234375 0.234375 0.71875q0 0.265625 0.0625 0.34375q0.0625 0.078125 0.15625 0.078125q0.171875 0 0.375 -0.203125q0.28125 -0.296875 0.671875 -1.375l0.203125 -0.5625zm9.6015625 -5.125l0 -0.25q0.8125 -0.25 1.125 -0.453125q0.3125 -0.203125 0.546875 -0.609375q0.234375 -0.421875 0.234375 -0.859375q0 -0.59375 -0.4375 -1.015625q-0.4375 -0.421875 -1.078125 -0.421875q-1.0 0 -1.703125 1.0625l-0.265625 -0.09375q0.515625 -1.203125 1.3125 -1.796875q0.8125 -0.609375 1.796875 -0.609375q1.015625 0 1.671875 0.625q0.65625 0.609375 0.65625 1.4375q0 0.53125 -0.3125 1.03125q-0.296875 0.5 -0.953125 0.875q0.84375 0.40625 1.28125 1.0q0.4375 0.59375 0.4375 1.5q0 1.515625 -1.109375 2.578125q-1.09375 1.0625 -2.9375 1.0625q-1.234375 0 -1.796875 -0.40625q-0.40625 -0.28125 -0.40625 -0.734375q0 -0.328125 0.234375 -0.5625q0.234375 -0.234375 0.546875 -0.234375q0.234375 0 0.4375 0.109375q0.125 0.046875 0.8125 0.625q0.703125 0.5625 1.3125 0.5625q0.53125 0 0.90625 -0.421875q0.375 -0.421875 0.375 -1.0625q0 -0.96875 -0.6875 -1.796875q-0.671875 -0.828125 -2.0 -1.140625z" fill-rule="nonzero"/><path fill="#000000" d="m62.43762 105.10694l0 2.71875q0 0.78125 0.09375 0.984375q0.109375 0.203125 0.34375 0.328125q0.25 0.125 0.90625 0.125l0 0.265625l-4.96875 0l0 -0.265625q0.671875 0 0.90625 -0.125q0.25 -0.125 0.34375 -0.328125q0.109375 -0.203125 0.109375 -0.984375l0 -6.296875q0 -0.78125 -0.109375 -0.984375q-0.09375 -0.21875 -0.34375 -0.328125q-0.234375 -0.125 -0.90625 -0.125l0 -0.265625l4.515625 0q1.7656288 0 2.5781288 0.25q0.8125 0.234375 1.328125 0.890625q0.515625 0.65625 0.515625 1.53125q0 1.078125 -0.765625 1.78125q-0.5 0.4375 -1.390625 0.65625l2.328125 3.296875q0.46875 0.625 0.65625 0.78125q0.296875 0.234375 0.6875 0.25l0 0.265625l-3.0625 0l-3.1250038 -4.421875l-0.640625 0zm0 -4.765625l0 4.25l0.40625 0q1.0 0 1.4843788 -0.171875q0.5 -0.1875 0.78125 -0.65625q0.28125 -0.484375 0.28125 -1.25q0 -1.109375 -0.515625 -1.640625q-0.515625 -0.53125 -1.6718788 -0.53125l-0.765625 0zm10.693653 0.046875l0 3.9375l0.1875 0q0.921875 0 1.328125 -0.578125q0.421875 -0.578125 0.53125 -1.703125l0.28125 0l0 5.078125l-0.28125 0q-0.078125 -0.828125 -0.359375 -1.359375q-0.265625 -0.53125 -0.640625 -0.703125q-0.359375 -0.1875 -1.046875 -0.1875l0 2.734375q0 0.796875 0.0625 0.984375q0.0625 0.171875 0.25 0.296875q0.1875 0.109375 0.609375 0.109375l0.578125 0q1.359375 0 2.171875 -0.625q0.828125 -0.640625 1.1875 -1.921875l0.265625 0l-0.4375 3.078125l-8.390625 0l0 -0.265625l0.3125 0q0.421875 0 0.6875 -0.15625q0.1875 -0.09375 0.28125 -0.34375q0.078125 -0.171875 0.078125 -0.890625l0 -6.390625q0 -0.65625 -0.03125 -0.8125q-0.078125 -0.25 -0.265625 -0.375q-0.265625 -0.203125 -0.75 -0.203125l-0.3125 0l0 -0.265625l8.125 0l0 2.875l-0.28125 0q-0.203125 -1.0625 -0.578125 -1.515625q-0.375 -0.453125 -1.0625 -0.671875q-0.40625 -0.125 -1.5 -0.125l-1.0 0zm12.666229 -0.78125l0.078125 3.234375l-0.296875 0q-0.203125 -1.21875 -1.015625 -1.953125q-0.8125 -0.75 -1.765625 -0.75q-0.734375 0 -1.15625 0.390625q-0.421875 0.390625 -0.421875 0.90625q0 0.3125 0.15625 0.5625q0.203125 0.34375 0.65625 0.671875q0.34375 0.234375 1.5625 0.828125q1.703125 0.84375 2.296875 1.59375q0.578125 0.734375 0.578125 1.703125q0 1.203125 -0.953125 2.09375q-0.9375 0.875 -2.40625 0.875q-0.453125 0 -0.859375 -0.09375q-0.40625 -0.09375 -1.03125 -0.359375q-0.34375 -0.140625 -0.5625 -0.140625q-0.1875 0 -0.390625 0.140625q-0.203125 0.140625 -0.34375 0.4375l-0.25 0l0 -3.65625l0.25 0q0.328125 1.546875 1.21875 2.359375q0.90625 0.8125 1.9375 0.8125q0.796875 0 1.265625 -0.4375q0.484375 -0.4375 0.484375 -1.015625q0 -0.34375 -0.1875 -0.671875q-0.171875 -0.328125 -0.546875 -0.609375q-0.375 -0.296875 -1.3125 -0.75q-1.328125 -0.65625 -1.90625 -1.109375q-0.578125 -0.46875 -0.890625 -1.03125q-0.3125 -0.5625 -0.3125 -1.25q0 -1.15625 0.84375 -1.96875q0.859375 -0.8125 2.15625 -0.8125q0.46875 0 0.921875 0.109375q0.328125 0.09375 0.8125 0.328125q0.484375 0.21875 0.671875 0.21875q0.1875 0 0.296875 -0.109375q0.109375 -0.109375 0.203125 -0.546875l0.21875 0zm10.510483 0.21875l0 2.625l-0.265625 0q-0.21875 -0.90625 -0.5 -1.296875q-0.28125 -0.40625 -0.765625 -0.640625q-0.28125 -0.125 -0.953125 -0.125l-0.71875 0l0 7.484375q0 0.734375 0.078125 0.921875q0.078125 0.1875 0.3125 0.328125q0.25 0.140625 0.65625 0.140625l0.328125 0l0 0.265625l-5.078125 0l0 -0.265625l0.3125 0q0.421875 0 0.6875 -0.15625q0.1875 -0.09375 0.296875 -0.34375q0.078125 -0.171875 0.078125 -0.890625l0 -7.484375l-0.703125 0q-0.984375 0 -1.421875 0.40625q-0.625 0.578125 -0.796875 1.65625l-0.265625 0l0 -2.625l8.71875 0z" fill-rule="nonzero"/><path fill="#000000" d="m183.26198 108.085045q0 0.25 -0.078125 0.390625q-0.0625 0.125 -0.1875 0.125l-1.046875 0l0 1.953125q0 0.046875 -0.03125 0.09375q-0.03125 0.03125 -0.109375 0.0625q-0.0625 0.03125 -0.171875 0.046875q-0.109375 0.015625 -0.296875 0.015625q-0.171875 0 -0.28125 -0.015625q-0.109375 -0.015625 -0.1875 -0.046875q-0.0625 -0.03125 -0.09375 -0.0625q-0.015625 -0.046875 -0.015625 -0.09375l0 -1.953125l-3.828125 0q-0.078125 0 -0.140625 -0.015625q-0.0625 -0.03125 -0.109375 -0.078125q-0.046875 -0.0625 -0.0625 -0.171875q-0.015625 -0.109375 -0.015625 -0.28125q0 -0.140625 0 -0.234375q0.015625 -0.109375 0.03125 -0.203125q0.03125 -0.09375 0.0625 -0.171875q0.03125 -0.078125 0.078125 -0.171875l3.34375 -5.625q0.03125 -0.0625 0.09375 -0.09375q0.078125 -0.046875 0.1875 -0.078125q0.109375 -0.03125 0.265625 -0.03125q0.15625 -0.015625 0.359375 -0.015625q0.25 0 0.421875 0.015625q0.171875 0.015625 0.28125 0.046875q0.109375 0.03125 0.15625 0.078125q0.0625 0.03125 0.0625 0.109375l0 5.90625l1.046875 0q0.125 0 0.1875 0.125q0.078125 0.125 0.078125 0.375zm-2.5 -5.578125l-0.015625 0l-3.015625 5.078125l3.03125 0l0 -5.078125zm9.490814 5.234375q0 0.75 -0.25 1.328125q-0.25 0.578125 -0.703125 0.984375q-0.453125 0.390625 -1.09375 0.609375q-0.625 0.203125 -1.40625 0.203125q-0.421875 0 -0.8125 -0.0625q-0.390625 -0.0625 -0.6875 -0.15625q-0.296875 -0.09375 -0.5 -0.171875q-0.1875 -0.09375 -0.25 -0.140625q-0.046875 -0.046875 -0.078125 -0.078125q-0.015625 -0.046875 -0.03125 -0.109375q-0.015625 -0.0625 -0.03125 -0.15625q0 -0.09375 0 -0.21875q0 -0.125 0.015625 -0.21875q0.015625 -0.109375 0.03125 -0.15625q0.03125 -0.0625 0.0625 -0.09375q0.046875 -0.03125 0.109375 -0.03125q0.0625 0 0.203125 0.09375q0.15625 0.078125 0.40625 0.1875q0.265625 0.109375 0.640625 0.203125q0.375 0.09375 0.890625 0.09375q0.484375 0 0.875 -0.109375q0.40625 -0.125 0.6875 -0.359375q0.296875 -0.25 0.453125 -0.609375q0.171875 -0.375 0.171875 -0.90625q0 -0.453125 -0.140625 -0.78125q-0.140625 -0.34375 -0.4375 -0.5625q-0.28125 -0.234375 -0.734375 -0.34375q-0.4375 -0.109375 -1.046875 -0.109375q-0.4375 0 -0.75 0.046875q-0.3125 0.03125 -0.59375 0.03125q-0.203125 0 -0.296875 -0.09375q-0.078125 -0.09375 -0.078125 -0.359375l0 -3.765625q0 -0.234375 0.109375 -0.34375q0.125 -0.125 0.328125 -0.125l4.09375 0q0.0625 0 0.109375 0.03125q0.0625 0.03125 0.09375 0.109375q0.046875 0.0625 0.0625 0.171875q0.015625 0.09375 0.015625 0.21875q0 0.265625 -0.078125 0.40625q-0.0625 0.140625 -0.203125 0.140625l-3.453125 0l0 2.59375q0.25 -0.03125 0.515625 -0.03125q0.265625 -0.015625 0.609375 -0.015625q0.78125 0 1.375 0.1875q0.609375 0.1875 1.0 0.546875q0.390625 0.34375 0.59375 0.84375q0.203125 0.484375 0.203125 1.078125z" fill-rule="nonzero"/><path fill="#000000" d="m239.18845 110.241295q0 0.140625 -0.03125 0.234375q-0.015625 0.078125 -0.0625 0.140625q-0.03125 0.0625 -0.078125 0.09375q-0.046875 0.015625 -0.09375 0.015625l-4.84375 0q-0.046875 0 -0.09375 -0.015625q-0.03125 -0.03125 -0.078125 -0.09375q-0.03125 -0.0625 -0.0625 -0.140625q-0.015625 -0.09375 -0.015625 -0.234375q0 -0.125 0.015625 -0.21875q0.03125 -0.09375 0.0625 -0.15625q0.03125 -0.0625 0.078125 -0.09375q0.046875 -0.03125 0.09375 -0.03125l1.9375 0l0 -7.046875l-1.78125 1.0625q-0.140625 0.078125 -0.234375 0.09375q-0.078125 0.015625 -0.125 -0.03125q-0.046875 -0.046875 -0.0625 -0.15625q-0.015625 -0.109375 -0.015625 -0.265625q0 -0.125 0 -0.203125q0.015625 -0.09375 0.03125 -0.15625q0.03125 -0.0625 0.0625 -0.09375q0.046875 -0.046875 0.109375 -0.09375l2.125 -1.359375q0.03125 -0.03125 0.078125 -0.03125q0.046875 -0.015625 0.109375 -0.03125q0.0625 -0.015625 0.140625 -0.015625q0.09375 -0.015625 0.21875 -0.015625q0.171875 0 0.28125 0.015625q0.125 0.015625 0.1875 0.046875q0.0625 0.015625 0.078125 0.0625q0.03125 0.03125 0.03125 0.078125l0 8.140625l1.671875 0q0.0625 0 0.109375 0.03125q0.046875 0.03125 0.078125 0.09375q0.03125 0.0625 0.046875 0.15625q0.03125 0.09375 0.03125 0.21875zm7.428314 0q0 0.140625 -0.03125 0.234375q-0.015625 0.078125 -0.0625 0.140625q-0.03125 0.0625 -0.078125 0.09375q-0.046875 0.015625 -0.09375 0.015625l-4.84375 0q-0.046875 0 -0.09375 -0.015625q-0.03125 -0.03125 -0.078125 -0.09375q-0.03125 -0.0625 -0.0625 -0.140625q-0.015625 -0.09375 -0.015625 -0.234375q0 -0.125 0.015625 -0.21875q0.03125 -0.09375 0.0625 -0.15625q0.03125 -0.0625 0.078125 -0.09375q0.046875 -0.03125 0.09375 -0.03125l1.9375 0l0 -7.046875l-1.78125 1.0625q-0.140625 0.078125 -0.234375 0.09375q-0.078125 0.015625 -0.125 -0.03125q-0.046875 -0.046875 -0.0625 -0.15625q-0.015625 -0.109375 -0.015625 -0.265625q0 -0.125 0 -0.203125q0.015625 -0.09375 0.03125 -0.15625q0.03125 -0.0625 0.0625 -0.09375q0.046875 -0.046875 0.109375 -0.09375l2.125 -1.359375q0.03125 -0.03125 0.078125 -0.03125q0.046875 -0.015625 0.109375 -0.03125q0.0625 -0.015625 0.140625 -0.015625q0.09375 -0.015625 0.21875 -0.015625q0.171875 0 0.28125 0.015625q0.125 0.015625 0.1875 0.046875q0.0625 0.015625 0.078125 0.0625q0.03125 0.03125 0.03125 0.078125l0 8.140625l1.671875 0q0.0625 0 0.109375 0.03125q0.046875 0.03125 0.078125 0.09375q0.03125 0.0625 0.046875 0.15625q0.03125 0.09375 0.03125 0.21875zm7.475189 -4.515625q0 0.609375 -0.078125 1.234375q-0.0625 0.609375 -0.234375 1.171875q-0.171875 0.5625 -0.46875 1.0625q-0.28125 0.5 -0.734375 0.875q-0.4375 0.375 -1.046875 0.59375q-0.59375 0.203125 -1.390625 0.203125q-0.3125 0 -0.609375 -0.046875q-0.28125 -0.03125 -0.515625 -0.09375q-0.234375 -0.0625 -0.390625 -0.125q-0.15625 -0.0625 -0.234375 -0.125q-0.0625 -0.0625 -0.09375 -0.171875q-0.03125 -0.109375 -0.03125 -0.296875q0 -0.15625 0 -0.25q0.015625 -0.09375 0.03125 -0.140625q0.03125 -0.0625 0.0625 -0.078125q0.046875 -0.015625 0.09375 -0.015625q0.078125 0 0.21875 0.0625q0.15625 0.046875 0.375 0.109375q0.21875 0.0625 0.5 0.125q0.296875 0.046875 0.671875 0.046875q0.6875 0 1.1875 -0.265625q0.5 -0.265625 0.8125 -0.71875q0.3125 -0.453125 0.46875 -1.046875q0.15625 -0.59375 0.171875 -1.25q-0.375 0.21875 -0.90625 0.390625q-0.53125 0.171875 -1.21875 0.171875q-0.765625 0 -1.296875 -0.203125q-0.53125 -0.21875 -0.859375 -0.578125q-0.3125 -0.375 -0.453125 -0.875q-0.125 -0.5 -0.125 -1.09375q0 -0.609375 0.171875 -1.15625q0.171875 -0.5625 0.546875 -0.984375q0.390625 -0.421875 0.96875 -0.671875q0.59375 -0.25 1.40625 -0.25q0.578125 0 1.03125 0.140625q0.453125 0.140625 0.78125 0.421875q0.328125 0.28125 0.546875 0.671875q0.234375 0.390625 0.375 0.890625q0.140625 0.484375 0.203125 1.0625q0.0625 0.578125 0.0625 1.203125zm-1.25 -0.125q0 -0.921875 -0.125 -1.546875q-0.125 -0.625 -0.359375 -1.015625q-0.234375 -0.390625 -0.578125 -0.5625q-0.34375 -0.171875 -0.796875 -0.171875q-0.46875 0 -0.796875 0.171875q-0.328125 0.171875 -0.546875 0.453125q-0.203125 0.28125 -0.3125 0.640625q-0.09375 0.359375 -0.09375 0.734375q0 0.421875 0.09375 0.78125q0.09375 0.34375 0.28125 0.59375q0.203125 0.234375 0.53125 0.375q0.328125 0.125 0.796875 0.125q0.53125 0 1.03125 -0.15625q0.5 -0.15625 0.875 -0.421875z" fill-rule="nonzero"/><path fill="#000000" d="m299.1572 110.19442q0 0.125 -0.015625 0.234375q-0.015625 0.09375 -0.046875 0.171875q-0.03125 0.0625 -0.09375 0.09375q-0.046875 0.03125 -0.109375 0.03125l-5.125 0q-0.09375 0 -0.171875 -0.015625q-0.078125 -0.03125 -0.140625 -0.09375q-0.046875 -0.0625 -0.078125 -0.15625q-0.015625 -0.109375 -0.015625 -0.265625q0 -0.15625 0.015625 -0.25q0.015625 -0.109375 0.046875 -0.1875q0.03125 -0.09375 0.078125 -0.171875q0.0625 -0.078125 0.15625 -0.171875l1.78125 -1.90625q0.625 -0.65625 1.0 -1.171875q0.375 -0.53125 0.578125 -0.953125q0.21875 -0.4375 0.28125 -0.78125q0.0625 -0.359375 0.0625 -0.671875q0 -0.296875 -0.109375 -0.578125q-0.09375 -0.28125 -0.28125 -0.484375q-0.1875 -0.203125 -0.484375 -0.328125q-0.28125 -0.125 -0.65625 -0.125q-0.4375 0 -0.78125 0.125q-0.34375 0.125 -0.609375 0.265625q-0.265625 0.140625 -0.4375 0.265625q-0.171875 0.125 -0.265625 0.125q-0.046875 0 -0.09375 -0.03125q-0.03125 -0.03125 -0.0625 -0.09375q-0.015625 -0.0625 -0.03125 -0.171875q-0.015625 -0.109375 -0.015625 -0.265625q0 -0.09375 0 -0.171875q0.015625 -0.078125 0.03125 -0.140625q0.015625 -0.0625 0.046875 -0.109375q0.03125 -0.046875 0.109375 -0.125q0.09375 -0.078125 0.296875 -0.203125q0.21875 -0.125 0.53125 -0.25q0.328125 -0.125 0.703125 -0.203125q0.390625 -0.09375 0.8125 -0.09375q0.671875 0 1.171875 0.1875q0.515625 0.1875 0.84375 0.515625q0.328125 0.328125 0.484375 0.765625q0.171875 0.4375 0.171875 0.9375q0 0.4375 -0.078125 0.875q-0.078125 0.4375 -0.328125 0.953125q-0.25 0.515625 -0.734375 1.140625q-0.484375 0.625 -1.28125 1.4375l-1.46875 1.53125l4.03125 0q0.0625 0 0.109375 0.03125q0.0625 0.03125 0.09375 0.09375q0.046875 0.0625 0.0625 0.171875q0.015625 0.09375 0.015625 0.21875zm7.662689 -2.46875q0 0.609375 -0.1875 1.1875q-0.1875 0.5625 -0.578125 1.0q-0.375 0.421875 -0.96875 0.6875q-0.59375 0.265625 -1.40625 0.265625q-0.578125 0 -1.03125 -0.140625q-0.4375 -0.15625 -0.765625 -0.421875q-0.328125 -0.265625 -0.546875 -0.640625q-0.21875 -0.390625 -0.359375 -0.875q-0.125 -0.5 -0.1875 -1.078125q-0.046875 -0.59375 -0.046875 -1.265625q0 -0.59375 0.0625 -1.203125q0.0625 -0.609375 0.21875 -1.171875q0.171875 -0.578125 0.453125 -1.0625q0.296875 -0.5 0.71875 -0.859375q0.421875 -0.375 1.015625 -0.59375q0.59375 -0.21875 1.375 -0.21875q0.265625 0 0.53125 0.03125q0.28125 0.03125 0.5 0.09375q0.234375 0.046875 0.390625 0.109375q0.171875 0.0625 0.21875 0.109375q0.046875 0.03125 0.0625 0.078125q0.03125 0.046875 0.046875 0.109375q0.015625 0.046875 0.015625 0.125q0.015625 0.0625 0.015625 0.15625q0 0.140625 0 0.234375q0 0.078125 -0.03125 0.140625q-0.03125 0.0625 -0.078125 0.09375q-0.03125 0.015625 -0.09375 0.015625q-0.078125 0 -0.21875 -0.046875q-0.125 -0.046875 -0.328125 -0.109375q-0.1875 -0.0625 -0.46875 -0.109375q-0.265625 -0.046875 -0.640625 -0.046875q-0.65625 0 -1.140625 0.28125q-0.484375 0.265625 -0.796875 0.71875q-0.296875 0.453125 -0.4375 1.0625q-0.140625 0.609375 -0.171875 1.265625q0.1875 -0.109375 0.421875 -0.21875q0.234375 -0.109375 0.5 -0.1875q0.28125 -0.09375 0.59375 -0.140625q0.3125 -0.0625 0.65625 -0.0625q0.75 0 1.265625 0.203125q0.515625 0.203125 0.828125 0.578125q0.328125 0.359375 0.453125 0.84375q0.140625 0.484375 0.140625 1.0625zm-1.234375 0.109375q0 -0.40625 -0.09375 -0.75q-0.078125 -0.34375 -0.28125 -0.578125q-0.1875 -0.234375 -0.515625 -0.359375q-0.3125 -0.125 -0.78125 -0.125q-0.265625 0 -0.53125 0.046875q-0.265625 0.046875 -0.515625 0.125q-0.25 0.078125 -0.46875 0.1875q-0.21875 0.109375 -0.40625 0.25q0 0.921875 0.109375 1.546875q0.125 0.609375 0.34375 0.984375q0.234375 0.375 0.5625 0.546875q0.34375 0.15625 0.796875 0.15625q0.453125 0 0.78125 -0.171875q0.34375 -0.171875 0.5625 -0.453125q0.21875 -0.296875 0.328125 -0.65625q0.109375 -0.359375 0.109375 -0.75zm8.740814 -1.765625q0 1.078125 -0.171875 1.953125q-0.171875 0.875 -0.5625 1.515625q-0.390625 0.625 -1.015625 0.984375q-0.625 0.34375 -1.546875 0.34375q-0.875 0 -1.484375 -0.3125q-0.59375 -0.3125 -0.953125 -0.921875q-0.359375 -0.609375 -0.515625 -1.484375q-0.15625 -0.890625 -0.15625 -2.03125q0 -1.0625 0.171875 -1.9375q0.171875 -0.890625 0.546875 -1.515625q0.390625 -0.640625 1.015625 -0.984375q0.640625 -0.34375 1.5625 -0.34375q0.875 0 1.46875 0.3125q0.59375 0.296875 0.953125 0.90625q0.375 0.609375 0.53125 1.5q0.15625 0.875 0.15625 2.015625zm-1.265625 0.09375q0 -0.703125 -0.046875 -1.25q-0.046875 -0.546875 -0.140625 -0.96875q-0.09375 -0.421875 -0.25 -0.71875q-0.15625 -0.3125 -0.375 -0.5q-0.21875 -0.203125 -0.5 -0.296875q-0.265625 -0.09375 -0.609375 -0.09375q-0.609375 0 -0.984375 0.296875q-0.375 0.28125 -0.59375 0.78125q-0.21875 0.5 -0.296875 1.171875q-0.078125 0.671875 -0.078125 1.453125q0 1.03125 0.09375 1.765625q0.109375 0.71875 0.34375 1.1875q0.234375 0.453125 0.59375 0.65625q0.359375 0.203125 0.875 0.203125q0.40625 0 0.703125 -0.125q0.3125 -0.125 0.53125 -0.359375q0.21875 -0.25 0.359375 -0.578125q0.140625 -0.34375 0.21875 -0.75q0.09375 -0.40625 0.125 -0.875q0.03125 -0.484375 0.03125 -1.0z" fill-rule="nonzero"/><path fill="#000000" d="m56.44402 138.80379l0 3.421875l-0.265625 0q-0.46875 -1.40625 -1.4375 -2.140625q-0.953125 -0.734375 -2.09375 -0.734375q-1.09375 0 -1.8125 0.625q-0.71875 0.609375 -1.03125 1.703125q-0.296875 1.09375 -0.296875 2.25q0 1.390625 0.328125 2.453125q0.328125 1.046875 1.0625 1.546875q0.734375 0.484375 1.75 0.484375q0.34375 0 0.71875 -0.078125q0.375 -0.078125 0.75 -0.21875l0 -2.015625q0 -0.578125 -0.078125 -0.734375q-0.078125 -0.171875 -0.328125 -0.3125q-0.234375 -0.140625 -0.59375 -0.140625l-0.25 0l0 -0.265625l4.71875 0l0 0.265625q-0.53125 0.046875 -0.75 0.15625q-0.203125 0.109375 -0.328125 0.359375q-0.0625 0.140625 -0.0625 0.671875l0 2.015625q-0.921875 0.421875 -1.9375 0.625q-1.0 0.21875 -2.078125 0.21875q-1.390625 0 -2.296875 -0.375q-0.90625 -0.375 -1.609375 -0.984375q-0.703125 -0.625 -1.09375 -1.390625q-0.5 -0.984375 -0.5 -2.203125q0 -2.1875 1.53125 -3.703125q1.546875 -1.515625 3.875 -1.515625q0.734375 0 1.3125 0.125q0.3125 0.046875 1.015625 0.328125q0.703125 0.265625 0.828125 0.265625q0.203125 0 0.375 -0.140625q0.171875 -0.15625 0.3125 -0.5625l0.265625 0zm4.5563507 3.234375l0 1.515625q0.671875 -1.046875 1.171875 -1.375q0.5 -0.34375 0.96875 -0.34375q0.390625 0 0.625 0.25q0.2500038 0.25 0.2500038 0.6875q0 0.484375 -0.23437881 0.75q-0.234375 0.265625 -0.5625 0.265625q-0.375 0 -0.65625 -0.234375q-0.28125 -0.25 -0.328125 -0.28125q-0.0625 -0.046875 -0.15625 -0.046875q-0.21875 0 -0.40625 0.15625q-0.28125 0.25 -0.4375 0.703125q-0.234375 0.6875 -0.234375 1.53125l0 1.53125l0.015625 0.40625q0 0.40625 0.046875 0.515625q0.078125 0.203125 0.25 0.296875q0.171875 0.078125 0.578125 0.109375l0 0.25l-3.625 0l0 -0.25q0.4375 -0.046875 0.59375 -0.25q0.15625 -0.203125 0.15625 -1.078125l0 -3.703125q0 -0.5625 -0.0625 -0.71875q-0.0625 -0.203125 -0.203125 -0.296875q-0.140625 -0.09375 -0.484375 -0.125l0 -0.265625l2.734375 0zm7.427021 5.703125q-1.21875 1.078125 -2.203125 1.078125q-0.5625 0 -0.953125 -0.375q-0.375 -0.375 -0.375 -0.9375q0 -0.765625 0.65625 -1.375q0.65625 -0.625 2.875 -1.640625l0 -0.671875q0 -0.75 -0.09375 -0.9375q-0.078125 -0.203125 -0.3125 -0.34375q-0.21875 -0.15625 -0.5 -0.15625q-0.46875 0 -0.765625 0.203125q-0.1875 0.125 -0.1875 0.296875q0 0.15625 0.203125 0.375q0.265625 0.3125 0.265625 0.59375q0 0.359375 -0.265625 0.609375q-0.25 0.234375 -0.671875 0.234375q-0.453125 0 -0.765625 -0.265625q-0.296875 -0.28125 -0.296875 -0.640625q0 -0.515625 0.40625 -0.984375q0.40625 -0.46875 1.125 -0.71875q0.734375 -0.25 1.53125 -0.25q0.953125 0 1.5 0.40625q0.5625 0.40625 0.71875 0.875q0.109375 0.296875 0.109375 1.375l0 2.609375q0 0.453125 0.03125 0.578125q0.03125 0.109375 0.09375 0.171875q0.078125 0.046875 0.171875 0.046875q0.1875 0 0.390625 -0.265625l0.203125 0.171875q-0.34375 0.53125 -0.734375 0.78125q-0.375 0.234375 -0.875 0.234375q-0.5625 0 -0.890625 -0.265625q-0.3125 -0.265625 -0.390625 -0.8125zm0 -0.53125l0 -2.234375q-0.859375 0.515625 -1.296875 1.09375q-0.265625 0.375 -0.265625 0.78125q0 0.328125 0.234375 0.578125q0.171875 0.1875 0.5 0.1875q0.359375 0 0.828125 -0.40625zm6.21875 0.828125l0 2.5q0 0.515625 0.078125 0.703125q0.09375 0.1875 0.265625 0.265625q0.171875 0.09375 0.671875 0.09375l0 0.265625l-3.8125 0l0 -0.265625q0.4375 -0.015625 0.65625 -0.25q0.140625 -0.171875 0.140625 -0.859375l0 -7.0625q0 -0.703125 -0.171875 -0.890625q-0.15625 -0.203125 -0.625 -0.234375l0 -0.265625l2.796875 0l0 0.875q0.359375 -0.515625 0.71875 -0.75q0.53125 -0.328125 1.140625 -0.328125q0.734375 0 1.34375 0.46875q0.609375 0.453125 0.921875 1.28125q0.3125 0.8125 0.3125 1.765625q0 1.015625 -0.328125 1.859375q-0.328125 0.828125 -0.953125 1.28125q-0.609375 0.4375 -1.375 0.4375q-0.546875 0 -1.03125 -0.25q-0.34375 -0.1875 -0.75 -0.640625zm0 -0.71875q0.625 0.875 1.328125 0.875q0.375 0 0.625 -0.40625q0.375 -0.59375 0.375 -2.296875q0 -1.71875 -0.40625 -2.359375q-0.265625 -0.421875 -0.734375 -0.421875q-0.71875 0 -1.1875 1.046875l0 3.5625zm8.307358 -8.296875l0 3.875q0.546875 -0.578125 1.0 -0.8125q0.453125 -0.25 0.953125 -0.25q0.625 0 1.078125 0.359375q0.453125 0.359375 0.59375 0.84375q0.140625 0.484375 0.140625 1.625l0 2.609375q0 0.765625 0.140625 0.953125q0.15625 0.1875 0.59375 0.25l0 0.25l-3.390625 0l0 -0.25q0.34375 -0.0625 0.53125 -0.296875q0.125 -0.1875 0.125 -0.90625l0 -2.984375q0 -0.828125 -0.0625 -1.03125q-0.0625 -0.21875 -0.21875 -0.328125q-0.15625 -0.125 -0.34375 -0.125q-0.28125 0 -0.5625 0.203125q-0.265625 0.1875 -0.578125 0.6875l0 3.578125q0 0.71875 0.09375 0.890625q0.140625 0.25 0.5625 0.3125l0 0.25l-3.390625 0l0 -0.25q0.421875 -0.046875 0.609375 -0.28125q0.109375 -0.15625 0.109375 -0.921875l0 -6.796875q0 -0.765625 -0.140625 -0.9375q-0.140625 -0.1875 -0.578125 -0.25l0 -0.265625l2.734375 0zm11.916733 9.78125q0.328125 0.953125 1.015625 1.4375q0.703125 0.484375 1.75 0.484375q0.296875 0 0.609375 -0.0625l0 0.4375q-1.078125 0.265625 -1.9375 0.265625q-1.328125 0 -2.375 -0.65625q-1.046875 -0.640625 -1.578125 -1.90625q-1.75 -0.359375 -2.828125 -1.703125q-1.078125 -1.359375 -1.078125 -3.234375q0 -2.1875 1.453125 -3.625q1.46875 -1.4375 3.703125 -1.4375q2.25 0 3.703125 1.453125q1.453125 1.4375 1.453125 3.609375q0 1.875 -1.140625 3.28125q-1.140625 1.390625 -2.75 1.65625zm-1.265625 -9.453125q-1.296875 0 -1.984375 1.328125q-0.59375 1.125 -0.59375 3.203125q0 2.484375 0.875 3.6875q0.625 0.84375 1.703125 0.84375q1.078125 0 1.6875 -0.828125q0.890625 -1.171875 0.890625 -3.546875q0 -2.328125 -0.5625 -3.375q-0.671875 -1.3125 -2.015625 -1.3125zm14.915726 5.96875l-0.359375 3.40625l-8.625 0l0 -0.265625l0.328125 0q0.421875 0 0.6875 -0.15625q0.171875 -0.09375 0.28125 -0.34375q0.078125 -0.171875 0.078125 -0.890625l0 -6.390625q0 -0.734375 -0.078125 -0.921875q-0.078125 -0.1875 -0.328125 -0.328125q-0.234375 -0.140625 -0.640625 -0.140625l-0.328125 0l0 -0.265625l5.1875 0l0 0.265625l-0.421875 0q-0.4375 0 -0.6875 0.15625q-0.1875 0.09375 -0.296875 0.328125q-0.078125 0.171875 -0.078125 0.90625l0 6.1875q0 0.75 0.078125 0.953125q0.09375 0.203125 0.34375 0.296875q0.1875 0.0625 0.875 0.0625l0.796875 0q0.78125 0 1.296875 -0.265625q0.515625 -0.28125 0.890625 -0.859375q0.375 -0.59375 0.703125 -1.734375l0.296875 0z" fill-rule="nonzero"/><path fill="#000000" d="m179.18845 149.43814q0 0.140625 -0.03125 0.234375q-0.015625 0.078125 -0.0625 0.140625q-0.03125 0.0625 -0.078125 0.09375q-0.046875 0.015625 -0.09375 0.015625l-4.84375 0q-0.046875 0 -0.09375 -0.015625q-0.03125 -0.03125 -0.078125 -0.09375q-0.03125 -0.0625 -0.0625 -0.140625q-0.015625 -0.09375 -0.015625 -0.234375q0 -0.125 0.015625 -0.21875q0.03125 -0.09375 0.0625 -0.15625q0.03125 -0.0625 0.078125 -0.09375q0.046875 -0.03125 0.09375 -0.03125l1.9375 0l0 -7.046875l-1.78125 1.0625q-0.140625 0.078125 -0.234375 0.09375q-0.078125 0.015625 -0.125 -0.03125q-0.046875 -0.046875 -0.0625 -0.15625q-0.015625 -0.109375 -0.015625 -0.265625q0 -0.125 0 -0.203125q0.015625 -0.09375 0.03125 -0.15625q0.03125 -0.0625 0.0625 -0.09375q0.046875 -0.046875 0.109375 -0.09375l2.125 -1.359375q0.03125 -0.03125 0.078125 -0.03125q0.046875 -0.015625 0.109375 -0.03125q0.0625 -0.015625 0.140625 -0.015625q0.09375 -0.015625 0.21875 -0.015625q0.171875 0 0.28125 0.015625q0.125 0.015625 0.1875 0.046875q0.0625 0.015625 0.078125 0.0625q0.03125 0.03125 0.03125 0.078125l0 8.140625l1.671875 0q0.0625 0 0.109375 0.03125q0.046875 0.03125 0.078125 0.09375q0.03125 0.0625 0.046875 0.15625q0.03125 0.09375 0.03125 0.21875zm7.334564 -2.15625q0 0.625 -0.234375 1.140625q-0.21875 0.515625 -0.640625 0.890625q-0.40625 0.359375 -1.015625 0.5625q-0.609375 0.1875 -1.375 0.1875q-0.46875 0 -0.875 -0.078125q-0.390625 -0.078125 -0.71875 -0.171875q-0.3125 -0.109375 -0.515625 -0.21875q-0.203125 -0.109375 -0.265625 -0.15625q-0.046875 -0.0625 -0.078125 -0.109375q-0.03125 -0.046875 -0.046875 -0.109375q-0.015625 -0.078125 -0.03125 -0.1875q-0.015625 -0.109375 -0.015625 -0.25q0 -0.265625 0.046875 -0.359375q0.0625 -0.109375 0.15625 -0.109375q0.0625 0 0.25 0.125q0.1875 0.109375 0.484375 0.25q0.296875 0.125 0.6875 0.25q0.40625 0.109375 0.890625 0.109375q0.46875 0 0.828125 -0.125q0.359375 -0.125 0.59375 -0.34375q0.25 -0.21875 0.375 -0.515625q0.125 -0.3125 0.125 -0.671875q0 -0.390625 -0.15625 -0.703125q-0.15625 -0.328125 -0.453125 -0.546875q-0.296875 -0.234375 -0.734375 -0.359375q-0.421875 -0.125 -0.984375 -0.125l-0.875 0q-0.0625 0 -0.125 -0.015625q-0.046875 -0.03125 -0.09375 -0.078125q-0.03125 -0.0625 -0.0625 -0.15625q-0.015625 -0.09375 -0.015625 -0.25q0 -0.125 0.015625 -0.21875q0.03125 -0.09375 0.0625 -0.140625q0.046875 -0.0625 0.09375 -0.078125q0.046875 -0.03125 0.109375 -0.03125l0.8125 0q0.46875 0 0.84375 -0.109375q0.390625 -0.125 0.640625 -0.359375q0.265625 -0.234375 0.40625 -0.546875q0.140625 -0.3125 0.140625 -0.71875q0 -0.28125 -0.09375 -0.53125q-0.09375 -0.265625 -0.28125 -0.453125q-0.1875 -0.203125 -0.484375 -0.3125q-0.28125 -0.109375 -0.65625 -0.109375q-0.421875 0 -0.765625 0.125q-0.34375 0.125 -0.625 0.265625q-0.265625 0.140625 -0.453125 0.265625q-0.171875 0.125 -0.25 0.125q-0.046875 0 -0.09375 -0.015625q-0.03125 -0.015625 -0.0625 -0.0625q-0.015625 -0.0625 -0.03125 -0.15625q0 -0.09375 0 -0.265625q0 -0.09375 0 -0.171875q0.015625 -0.09375 0.03125 -0.15625q0.015625 -0.0625 0.046875 -0.109375q0.03125 -0.046875 0.09375 -0.109375q0.078125 -0.078125 0.28125 -0.203125q0.203125 -0.125 0.5 -0.25q0.3125 -0.125 0.703125 -0.203125q0.40625 -0.09375 0.859375 -0.09375q0.65625 0 1.140625 0.171875q0.484375 0.15625 0.8125 0.453125q0.328125 0.296875 0.484375 0.71875q0.15625 0.421875 0.15625 0.921875q0 0.4375 -0.125 0.8125q-0.109375 0.375 -0.328125 0.671875q-0.21875 0.28125 -0.546875 0.5q-0.3125 0.203125 -0.734375 0.28125l0 0q0.484375 0.0625 0.875 0.25q0.390625 0.1875 0.671875 0.484375q0.296875 0.28125 0.453125 0.671875q0.171875 0.375 0.171875 0.8125zm7.709564 0.265625q0 0.59375 -0.21875 1.0625q-0.21875 0.46875 -0.625 0.796875q-0.390625 0.328125 -0.984375 0.5q-0.59375 0.15625 -1.359375 0.15625q-0.71875 0 -1.28125 -0.15625q-0.5625 -0.15625 -0.96875 -0.4375q-0.390625 -0.296875 -0.59375 -0.71875q-0.203125 -0.4375 -0.203125 -0.984375q0 -0.4375 0.140625 -0.796875q0.140625 -0.375 0.40625 -0.671875q0.265625 -0.3125 0.65625 -0.578125q0.40625 -0.28125 0.890625 -0.515625q-0.421875 -0.21875 -0.75 -0.46875q-0.328125 -0.25 -0.5625 -0.53125q-0.234375 -0.296875 -0.359375 -0.625q-0.109375 -0.328125 -0.109375 -0.71875q0 -0.484375 0.171875 -0.90625q0.1875 -0.4375 0.53125 -0.75q0.359375 -0.3125 0.90625 -0.484375q0.546875 -0.1875 1.28125 -0.1875q0.703125 0 1.203125 0.171875q0.515625 0.15625 0.84375 0.453125q0.34375 0.28125 0.5 0.6875q0.15625 0.390625 0.15625 0.828125q0 0.375 -0.125 0.71875q-0.109375 0.328125 -0.34375 0.625q-0.234375 0.296875 -0.5625 0.5625q-0.328125 0.265625 -0.765625 0.484375q0.515625 0.265625 0.90625 0.53125q0.40625 0.25 0.671875 0.5625q0.265625 0.296875 0.40625 0.640625q0.140625 0.34375 0.140625 0.75zm-1.546875 -4.75q0 -0.296875 -0.109375 -0.546875q-0.09375 -0.25 -0.296875 -0.421875q-0.203125 -0.171875 -0.5 -0.25q-0.296875 -0.09375 -0.671875 -0.09375q-0.78125 0 -1.1875 0.359375q-0.390625 0.34375 -0.390625 0.953125q0 0.28125 0.09375 0.515625q0.109375 0.234375 0.3125 0.453125q0.203125 0.21875 0.515625 0.421875q0.3125 0.203125 0.734375 0.421875q0.734375 -0.375 1.109375 -0.8125q0.390625 -0.453125 0.390625 -1.0zm0.296875 4.875q0 -0.328125 -0.125 -0.59375q-0.109375 -0.265625 -0.359375 -0.5q-0.25 -0.234375 -0.625 -0.453125q-0.359375 -0.21875 -0.84375 -0.453125q-0.453125 0.21875 -0.796875 0.453125q-0.34375 0.21875 -0.5625 0.453125q-0.21875 0.234375 -0.328125 0.5q-0.109375 0.25 -0.109375 0.5625q0 0.703125 0.46875 1.078125q0.484375 0.375 1.4375 0.375q0.90625 0 1.375 -0.375q0.46875 -0.390625 0.46875 -1.046875z" fill-rule="nonzero"/><path fill="#000000" d="m239.0947 147.28189q0 0.625 -0.234375 1.140625q-0.21875 0.515625 -0.640625 0.890625q-0.40625 0.359375 -1.015625 0.5625q-0.609375 0.1875 -1.375 0.1875q-0.46875 0 -0.875 -0.078125q-0.390625 -0.078125 -0.71875 -0.171875q-0.3125 -0.109375 -0.515625 -0.21875q-0.203125 -0.109375 -0.265625 -0.15625q-0.046875 -0.0625 -0.078125 -0.109375q-0.03125 -0.046875 -0.046875 -0.109375q-0.015625 -0.078125 -0.03125 -0.1875q-0.015625 -0.109375 -0.015625 -0.25q0 -0.265625 0.046875 -0.359375q0.0625 -0.109375 0.15625 -0.109375q0.0625 0 0.25 0.125q0.1875 0.109375 0.484375 0.25q0.296875 0.125 0.6875 0.25q0.40625 0.109375 0.890625 0.109375q0.46875 0 0.828125 -0.125q0.359375 -0.125 0.59375 -0.34375q0.25 -0.21875 0.375 -0.515625q0.125 -0.3125 0.125 -0.671875q0 -0.390625 -0.15625 -0.703125q-0.15625 -0.328125 -0.453125 -0.546875q-0.296875 -0.234375 -0.734375 -0.359375q-0.421875 -0.125 -0.984375 -0.125l-0.875 0q-0.0625 0 -0.125 -0.015625q-0.046875 -0.03125 -0.09375 -0.078125q-0.03125 -0.0625 -0.0625 -0.15625q-0.015625 -0.09375 -0.015625 -0.25q0 -0.125 0.015625 -0.21875q0.03125 -0.09375 0.0625 -0.140625q0.046875 -0.0625 0.09375 -0.078125q0.046875 -0.03125 0.109375 -0.03125l0.8125 0q0.46875 0 0.84375 -0.109375q0.390625 -0.125 0.640625 -0.359375q0.265625 -0.234375 0.40625 -0.546875q0.140625 -0.3125 0.140625 -0.71875q0 -0.28125 -0.09375 -0.53125q-0.09375 -0.265625 -0.28125 -0.453125q-0.1875 -0.203125 -0.484375 -0.3125q-0.28125 -0.109375 -0.65625 -0.109375q-0.421875 0 -0.765625 0.125q-0.34375 0.125 -0.625 0.265625q-0.265625 0.140625 -0.453125 0.265625q-0.171875 0.125 -0.25 0.125q-0.046875 0 -0.09375 -0.015625q-0.03125 -0.015625 -0.0625 -0.0625q-0.015625 -0.0625 -0.03125 -0.15625q0 -0.09375 0 -0.265625q0 -0.09375 0 -0.171875q0.015625 -0.09375 0.03125 -0.15625q0.015625 -0.0625 0.046875 -0.109375q0.03125 -0.046875 0.09375 -0.109375q0.078125 -0.078125 0.28125 -0.203125q0.203125 -0.125 0.5 -0.25q0.3125 -0.125 0.703125 -0.203125q0.40625 -0.09375 0.859375 -0.09375q0.65625 0 1.140625 0.171875q0.484375 0.15625 0.8125 0.453125q0.328125 0.296875 0.484375 0.71875q0.15625 0.421875 0.15625 0.921875q0 0.4375 -0.125 0.8125q-0.109375 0.375 -0.328125 0.671875q-0.21875 0.28125 -0.546875 0.5q-0.3125 0.203125 -0.734375 0.28125l0 0q0.484375 0.0625 0.875 0.25q0.390625 0.1875 0.671875 0.484375q0.296875 0.28125 0.453125 0.671875q0.171875 0.375 0.171875 0.8125zm7.725189 -0.359375q0 0.609375 -0.1875 1.1875q-0.1875 0.5625 -0.578125 1.0q-0.375 0.421875 -0.96875 0.6875q-0.59375 0.265625 -1.40625 0.265625q-0.578125 0 -1.03125 -0.140625q-0.4375 -0.15625 -0.765625 -0.421875q-0.328125 -0.265625 -0.546875 -0.640625q-0.21875 -0.390625 -0.359375 -0.875q-0.125 -0.5 -0.1875 -1.078125q-0.046875 -0.59375 -0.046875 -1.265625q0 -0.59375 0.0625 -1.203125q0.0625 -0.609375 0.21875 -1.171875q0.171875 -0.578125 0.453125 -1.0625q0.296875 -0.5 0.71875 -0.859375q0.421875 -0.375 1.015625 -0.59375q0.59375 -0.21875 1.375 -0.21875q0.265625 0 0.53125 0.03125q0.28125 0.03125 0.5 0.09375q0.234375 0.046875 0.390625 0.109375q0.171875 0.0625 0.21875 0.109375q0.046875 0.03125 0.0625 0.078125q0.03125 0.046875 0.046875 0.109375q0.015625 0.046875 0.015625 0.125q0.015625 0.0625 0.015625 0.15625q0 0.140625 0 0.234375q0 0.078125 -0.03125 0.140625q-0.03125 0.0625 -0.078125 0.09375q-0.03125 0.015625 -0.09375 0.015625q-0.078125 0 -0.21875 -0.046875q-0.125 -0.046875 -0.328125 -0.109375q-0.1875 -0.0625 -0.46875 -0.109375q-0.265625 -0.046875 -0.640625 -0.046875q-0.65625 0 -1.140625 0.28125q-0.484375 0.265625 -0.796875 0.71875q-0.296875 0.453125 -0.4375 1.0625q-0.140625 0.609375 -0.171875 1.265625q0.1875 -0.109375 0.421875 -0.21875q0.234375 -0.109375 0.5 -0.1875q0.28125 -0.09375 0.59375 -0.140625q0.3125 -0.0625 0.65625 -0.0625q0.75 0 1.265625 0.203125q0.515625 0.203125 0.828125 0.578125q0.328125 0.359375 0.453125 0.84375q0.140625 0.484375 0.140625 1.0625zm-1.234375 0.109375q0 -0.40625 -0.09375 -0.75q-0.078125 -0.34375 -0.28125 -0.578125q-0.1875 -0.234375 -0.515625 -0.359375q-0.3125 -0.125 -0.78125 -0.125q-0.265625 0 -0.53125 0.046875q-0.265625 0.046875 -0.515625 0.125q-0.25 0.078125 -0.46875 0.1875q-0.21875 0.109375 -0.40625 0.25q0 0.921875 0.109375 1.546875q0.125 0.609375 0.34375 0.984375q0.234375 0.375 0.5625 0.546875q0.34375 0.15625 0.796875 0.15625q0.453125 0 0.78125 -0.171875q0.34375 -0.171875 0.5625 -0.453125q0.21875 -0.296875 0.328125 -0.65625q0.109375 -0.359375 0.109375 -0.75zm8.365814 0.25q0 0.625 -0.234375 1.140625q-0.21875 0.515625 -0.640625 0.890625q-0.40625 0.359375 -1.015625 0.5625q-0.609375 0.1875 -1.375 0.1875q-0.46875 0 -0.875 -0.078125q-0.390625 -0.078125 -0.71875 -0.171875q-0.3125 -0.109375 -0.515625 -0.21875q-0.203125 -0.109375 -0.265625 -0.15625q-0.046875 -0.0625 -0.078125 -0.109375q-0.03125 -0.046875 -0.046875 -0.109375q-0.015625 -0.078125 -0.03125 -0.1875q-0.015625 -0.109375 -0.015625 -0.25q0 -0.265625 0.046875 -0.359375q0.0625 -0.109375 0.15625 -0.109375q0.0625 0 0.25 0.125q0.1875 0.109375 0.484375 0.25q0.296875 0.125 0.6875 0.25q0.40625 0.109375 0.890625 0.109375q0.46875 0 0.828125 -0.125q0.359375 -0.125 0.59375 -0.34375q0.25 -0.21875 0.375 -0.515625q0.125 -0.3125 0.125 -0.671875q0 -0.390625 -0.15625 -0.703125q-0.15625 -0.328125 -0.453125 -0.546875q-0.296875 -0.234375 -0.734375 -0.359375q-0.421875 -0.125 -0.984375 -0.125l-0.875 0q-0.0625 0 -0.125 -0.015625q-0.046875 -0.03125 -0.09375 -0.078125q-0.03125 -0.0625 -0.0625 -0.15625q-0.015625 -0.09375 -0.015625 -0.25q0 -0.125 0.015625 -0.21875q0.03125 -0.09375 0.0625 -0.140625q0.046875 -0.0625 0.09375 -0.078125q0.046875 -0.03125 0.109375 -0.03125l0.8125 0q0.46875 0 0.84375 -0.109375q0.390625 -0.125 0.640625 -0.359375q0.265625 -0.234375 0.40625 -0.546875q0.140625 -0.3125 0.140625 -0.71875q0 -0.28125 -0.09375 -0.53125q-0.09375 -0.265625 -0.28125 -0.453125q-0.1875 -0.203125 -0.484375 -0.3125q-0.28125 -0.109375 -0.65625 -0.109375q-0.421875 0 -0.765625 0.125q-0.34375 0.125 -0.625 0.265625q-0.265625 0.140625 -0.453125 0.265625q-0.171875 0.125 -0.25 0.125q-0.046875 0 -0.09375 -0.015625q-0.03125 -0.015625 -0.0625 -0.0625q-0.015625 -0.0625 -0.03125 -0.15625q0 -0.09375 0 -0.265625q0 -0.09375 0 -0.171875q0.015625 -0.09375 0.03125 -0.15625q0.015625 -0.0625 0.046875 -0.109375q0.03125 -0.046875 0.09375 -0.109375q0.078125 -0.078125 0.28125 -0.203125q0.203125 -0.125 0.5 -0.25q0.3125 -0.125 0.703125 -0.203125q0.40625 -0.09375 0.859375 -0.09375q0.65625 0 1.140625 0.171875q0.484375 0.15625 0.8125 0.453125q0.328125 0.296875 0.484375 0.71875q0.15625 0.421875 0.15625 0.921875q0 0.4375 -0.125 0.8125q-0.109375 0.375 -0.328125 0.671875q-0.21875 0.28125 -0.546875 0.5q-0.3125 0.203125 -0.734375 0.28125l0 0q0.484375 0.0625 0.875 0.25q0.390625 0.1875 0.671875 0.484375q0.296875 0.28125 0.453125 0.671875q0.171875 0.375 0.171875 0.8125z" fill-rule="nonzero"/><path fill="#000000" d="m299.39157 146.92252q0 0.609375 -0.1875 1.1875q-0.1875 0.5625 -0.578125 1.0q-0.375 0.421875 -0.96875 0.6875q-0.59375 0.265625 -1.40625 0.265625q-0.578125 0 -1.03125 -0.140625q-0.4375 -0.15625 -0.765625 -0.421875q-0.328125 -0.265625 -0.546875 -0.640625q-0.21875 -0.390625 -0.359375 -0.875q-0.125 -0.5 -0.1875 -1.078125q-0.046875 -0.59375 -0.046875 -1.265625q0 -0.59375 0.0625 -1.203125q0.0625 -0.609375 0.21875 -1.171875q0.171875 -0.578125 0.453125 -1.0625q0.296875 -0.5 0.71875 -0.859375q0.421875 -0.375 1.015625 -0.59375q0.59375 -0.21875 1.375 -0.21875q0.265625 0 0.53125 0.03125q0.28125 0.03125 0.5 0.09375q0.234375 0.046875 0.390625 0.109375q0.171875 0.0625 0.21875 0.109375q0.046875 0.03125 0.0625 0.078125q0.03125 0.046875 0.046875 0.109375q0.015625 0.046875 0.015625 0.125q0.015625 0.0625 0.015625 0.15625q0 0.140625 0 0.234375q0 0.078125 -0.03125 0.140625q-0.03125 0.0625 -0.078125 0.09375q-0.03125 0.015625 -0.09375 0.015625q-0.078125 0 -0.21875 -0.046875q-0.125 -0.046875 -0.328125 -0.109375q-0.1875 -0.0625 -0.46875 -0.109375q-0.265625 -0.046875 -0.640625 -0.046875q-0.65625 0 -1.140625 0.28125q-0.484375 0.265625 -0.796875 0.71875q-0.296875 0.453125 -0.4375 1.0625q-0.140625 0.609375 -0.171875 1.265625q0.1875 -0.109375 0.421875 -0.21875q0.234375 -0.109375 0.5 -0.1875q0.28125 -0.09375 0.59375 -0.140625q0.3125 -0.0625 0.65625 -0.0625q0.75 0 1.265625 0.203125q0.515625 0.203125 0.828125 0.578125q0.328125 0.359375 0.453125 0.84375q0.140625 0.484375 0.140625 1.0625zm-1.234375 0.109375q0 -0.40625 -0.09375 -0.75q-0.078125 -0.34375 -0.28125 -0.578125q-0.1875 -0.234375 -0.515625 -0.359375q-0.3125 -0.125 -0.78125 -0.125q-0.265625 0 -0.53125 0.046875q-0.265625 0.046875 -0.515625 0.125q-0.25 0.078125 -0.46875 0.1875q-0.21875 0.109375 -0.40625 0.25q0 0.921875 0.109375 1.546875q0.125 0.609375 0.34375 0.984375q0.234375 0.375 0.5625 0.546875q0.34375 0.15625 0.796875 0.15625q0.453125 0 0.78125 -0.171875q0.34375 -0.171875 0.5625 -0.453125q0.21875 -0.296875 0.328125 -0.65625q0.109375 -0.359375 0.109375 -0.75zm8.818939 0.25q0 0.25 -0.078125 0.390625q-0.0625 0.125 -0.1875 0.125l-1.046875 0l0 1.953125q0 0.046875 -0.03125 0.09375q-0.03125 0.03125 -0.109375 0.0625q-0.0625 0.03125 -0.171875 0.046875q-0.109375 0.015625 -0.296875 0.015625q-0.171875 0 -0.28125 -0.015625q-0.109375 -0.015625 -0.1875 -0.046875q-0.0625 -0.03125 -0.09375 -0.0625q-0.015625 -0.046875 -0.015625 -0.09375l0 -1.953125l-3.828125 0q-0.078125 0 -0.140625 -0.015625q-0.0625 -0.03125 -0.109375 -0.078125q-0.046875 -0.0625 -0.0625 -0.171875q-0.015625 -0.109375 -0.015625 -0.28125q0 -0.140625 0 -0.234375q0.015625 -0.109375 0.03125 -0.203125q0.03125 -0.09375 0.0625 -0.171875q0.03125 -0.078125 0.078125 -0.171875l3.34375 -5.625q0.03125 -0.0625 0.09375 -0.09375q0.078125 -0.046875 0.1875 -0.078125q0.109375 -0.03125 0.265625 -0.03125q0.15625 -0.015625 0.359375 -0.015625q0.25 0 0.421875 0.015625q0.171875 0.015625 0.28125 0.046875q0.109375 0.03125 0.15625 0.078125q0.0625 0.03125 0.0625 0.109375l0 5.90625l1.046875 0q0.125 0 0.1875 0.125q0.078125 0.125 0.078125 0.375zm-2.5 -5.578125l-0.015625 0l-3.015625 5.078125l3.03125 0l0 -5.078125zm9.850189 3.5625q0 1.078125 -0.171875 1.953125q-0.171875 0.875 -0.5625 1.515625q-0.390625 0.625 -1.015625 0.984375q-0.625 0.34375 -1.546875 0.34375q-0.875 0 -1.484375 -0.3125q-0.59375 -0.3125 -0.953125 -0.921875q-0.359375 -0.609375 -0.515625 -1.484375q-0.15625 -0.890625 -0.15625 -2.03125q0 -1.0625 0.171875 -1.9375q0.171875 -0.890625 0.546875 -1.515625q0.390625 -0.640625 1.015625 -0.984375q0.640625 -0.34375 1.5625 -0.34375q0.875 0 1.46875 0.3125q0.59375 0.296875 0.953125 0.90625q0.375 0.609375 0.53125 1.5q0.15625 0.875 0.15625 2.015625zm-1.265625 0.09375q0 -0.703125 -0.046875 -1.25q-0.046875 -0.546875 -0.140625 -0.96875q-0.09375 -0.421875 -0.25 -0.71875q-0.15625 -0.3125 -0.375 -0.5q-0.21875 -0.203125 -0.5 -0.296875q-0.265625 -0.09375 -0.609375 -0.09375q-0.609375 0 -0.984375 0.296875q-0.375 0.28125 -0.59375 0.78125q-0.21875 0.5 -0.296875 1.171875q-0.078125 0.671875 -0.078125 1.453125q0 1.03125 0.09375 1.765625q0.109375 0.71875 0.34375 1.1875q0.234375 0.453125 0.59375 0.65625q0.359375 0.203125 0.875 0.203125q0.40625 0 0.703125 -0.125q0.3125 -0.125 0.53125 -0.359375q0.21875 -0.25 0.359375 -0.578125q0.140625 -0.34375 0.21875 -0.75q0.09375 -0.40625 0.125 -0.875q0.03125 -0.484375 0.03125 -1.0z" fill-rule="nonzero"/></g></svg>